<svg xmlns="http://www.w3.org/2000/svg" xmlns:xlink="http://www.w3.org/1999/xlink" xmlns:lucid="lucid" width="1042.72" height="772.11"><g transform="translate(-17785.26610938985 -1476.0223495361813)" lucid:page-tab-id="-Wgt_VTCCzLL"><path d="M17812 1773.5h176.05M17812 1792.5h176.05M17812 1811.5h176.05M17812 1830.5h176.05M17812.65 1944.5h176.04M17812 1754.5h176.05M17812 1735.5h176.05M17812.33 1849.5h176.04M17812.33 1868.5h176.04M17812.33 1887.5h176.04M17812.33 1906.5h176.04M17812.65 1925.5h176.04M17812.65 1963.5h176.04M17829.05 1795.16h176.03M17829.05 1814.16h176.03M17829.05 1833.16h176.03M17829.05 1852.16h176.03M17829.7 1966.16h176.02M17829.05 1776.16h176.03M17829.05 1757.16h176.03M17829.37 1871.16h176.03M17829.37 1890.16h176.03M17829.37 1909.16h176.03M17829.37 1928.16h176.03M17829.7 1947.16h176.02M17829.7 1985.16h176.02M17848.6 1810.52h176.04M17848.6 1826.22h176.04M17848.6 1843.8h176.04M17848.6 1861.6h176.04" stroke="#3a414a" stroke-width="3" stroke-linecap="round" fill="none"/><path d="M17847.1 1895.02a6 6 0 0 1 6-6h167.04a6 6 0 0 1 6 6v65.3a6 6 0 0 1-6 6h-167.03a6 6 0 0 1-6-6z" stroke="#3a414a" stroke-width="3" fill="#f4d9ff"/><path d="M17848.6 1994.5h176.04M17848.6 1792.8h176.04M17848.6 1775.08h176.04" stroke="#3a414a" stroke-width="3" stroke-linecap="round" fill="none"/><path d="M18058.33 1882.05l8.16-8.52 9.08-10.3 9.5-11.76 10.3-13.88 11.9-17.55 16.94-27.47 42.3-71.46 9.08-13.4 7.36-9.93 6.42-7.96 5.86-6.65 5.47-5.72 5.2-5 5.03-4.4 4.9-3.98 4.8-3.57 4.77-3.24 4.77-2.97 4.8-2.7 4.84-2.47 4.94-2.26 5.05-2.06 5.2-1.87 5.37-1.7 5.6-1.5 5.86-1.3 6.18-1.1 6.56-.9 2.06-.2" stroke="#fff" stroke-width="2" stroke-linejoin="round" fill="none"/><path d="M18058.34 1882.03l-.7.74" stroke="#fff" stroke-width="2" fill="none"/><path d="M18301.85 1635.5l-14 5.35-.48-9.26z" stroke="#fff" stroke-width="2" fill="#fff"/><path d="M18331.83 1541.58h176.03M18331.83 1560.58h176.03M18331.83 1579.58h176.03M18331.83 1598.58h176.03M18332.47 1712.58h176.04M18331.83 1522.58h176.03M18331.83 1503.58h176.03M18332.15 1617.58h176.04M18332.15 1636.58h176.04M18332.15 1655.58h176.04M18332.15 1674.58h176.04M18332.47 1693.58h176.04M18332.47 1731.58h176.04M18354.95 1564.5h176.03M18354.95 1583.5h176.03M18354.95 1602.5h176.03M18354.95 1621.5h176.03M18355.6 1735.5h176.02M18354.95 1545.5h176.03M18354.95 1526.5h176.03M18355.27 1640.5h176.03M18355.27 1659.5h176.03M18355.27 1678.5h176.03M18355.27 1697.5h176.03M18355.6 1716.5h176.02M18355.6 1754.5h176.02M18378.7 1586.2h176.03M18378.7 1605.2h176.03M18378.7 1624.2h176.03M18378.7 1643.2h176.03M18379.33 1757.2h176.04M18378.7 1567.2h176.03M18378.7 1548.2h176.03M18379 1662.2h176.05M18379 1681.2h176.05M18379 1700.2h176.05M18379 1719.2h176.05M18379.33 1738.2h176.04M18379.33 1776.2h176.04M18342.1 1986.44h176.03M18342.1 2005.44h176.03M18342.1 2024.44h176.03M18342.1 2043.44h176.03M18342.74 2157.44h176.03M18342.1 1967.44h176.03M18342.1 1948.44h176.03M18342.42 2062.44h176.03M18342.42 2081.44h176.03M18342.42 2100.44h176.03M18342.42 2119.44h176.03M18342.74 2138.44h176.03M18342.74 2176.44h176.03M18359.13 2008.1h176.03M18359.13 2027.1h176.03M18359.13 2046.1h176.03M18359.13 2065.1h176.03M18359.77 2179.1h176.04M18359.13 1989.1h176.03M18359.13 1970.1h176.03M18359.45 2084.1h176.04M18359.45 2103.1h176.04M18359.45 2122.1h176.04M18359.45 2141.1h176.04M18359.77 2160.1h176.04M18359.77 2198.1h176.04M18378.7 2023.46h176.03M18378.7 2039.15h176.03M18378.7 2056.75h176.03M18378.7 2074.54h176.03" stroke="#3a414a" stroke-width="3" stroke-linecap="round" fill="none"/><path d="M18377.2 2107.96a6 6 0 0 1 6-6h167.03a6 6 0 0 1 6 6v65.3a6 6 0 0 1-6 6h-167.04a6 6 0 0 1-6-6z" stroke="#3a414a" stroke-width="3" fill="#c3f7c8"/><path d="M18378.7 2207.42h176.03M18378.7 2005.74h176.03M18378.7 1988.02h176.03" stroke="#3a414a" stroke-width="3" stroke-linecap="round" fill="none"/><path d="M18058.43 1883.38l10.26 7.86 11.4 9.5 12.14 11.05 13.7 13.53 18 19.4 57.84 65.53 10.16 10.05 8.4 7.65 7.45 6.2 6.85 5.26 6.46 4.54 6.22 3.98 6.04 3.52 5.96 3.15 5.94 2.8 5.95 2.54 6.04 2.27 6.15 2.04 6.3 1.8 6.56 1.55 6.8 1.32 7.16 1.08 6.65.72" stroke="#fff" stroke-width="2" stroke-linejoin="round" fill="none"/><path d="M18058.45 1883.4l-.82-.62" stroke="#fff" stroke-width="2" fill="none"/><path d="M18312.12 2071.43l-14.47 3.97.43-9.26z" stroke="#fff" stroke-width="2" fill="#fff"/><path d="M18093.88 1856.38a6 6 0 0 1 6-6h228a6 6 0 0 1 6 6v48a6 6 0 0 1-6 6h-228a6 6 0 0 1-6-6z" fill="none"/><use xlink:href="#a" transform="matrix(1,0,0,1,18093.88410481178,1850.375874763925) translate(14.626666666666665 40.111111111111114)"/><use xlink:href="#b" transform="matrix(1,0,0,1,18093.88410481178,1850.375874763925) translate(90.5688888888889 40.111111111111114)"/><path d="M18588 1628.7a6 6 0 0 1 6-6h228a6 6 0 0 1 6 6v48a6 6 0 0 1-6 6h-228a6 6 0 0 1-6-6z" fill="none"/><use xlink:href="#c" transform="matrix(1,0,0,1,18587.988962358515,1622.7088291966857) translate(47.93111111111111 40.111111111111114)"/><use xlink:href="#d" transform="matrix(1,0,0,1,18587.988962358515,1622.7088291966857) translate(110.15333333333334 40.111111111111114)"/><path d="M18588 2064.7a6 6 0 0 1 6-6h228a6 6 0 0 1 6 6v48a6 6 0 0 1-6 6h-228a6 6 0 0 1-6-6z" fill="none"/><use xlink:href="#e" transform="matrix(1,0,0,1,18587.988962358515,2058.6936367378485) translate(39.079999999999984 40.111111111111114)"/><use xlink:href="#d" transform="matrix(1,0,0,1,18587.988962358515,2058.6936367378485) translate(119.00444444444445 40.111111111111114)"/><path d="M17786.77 1715.44a6 6 0 0 1 6-6h214.52a6 6 0 0 1 6 6v272.68a6 6 0 0 1-6 6h-214.53a6 6 0 0 1-6-6z" stroke="#000" stroke-width="3" fill="#fbf0ff"/><path d="M17803.8 1737.1a6 6 0 0 1 6-6h214.53a6 6 0 0 1 6 6v272.68a6 6 0 0 1-6 6h-214.53a6 6 0 0 1-6-6z" stroke="#000" stroke-width="3" fill="#fbf0ff"/><path d="M17823.36 1755.02a6 6 0 0 1 6-6h214.53a6 6 0 0 1 6 6v272.68a6 6 0 0 1-6 6h-214.54a6 6 0 0 1-6-6z" stroke="#000" stroke-width="3" fill="#fbf0ff"/><path d="M18306.58 1483.52a6 6 0 0 1 6-6h214.53a6 6 0 0 1 6 6v272.68a6 6 0 0 1-6 6h-214.52a6 6 0 0 1-6-6z" stroke="#000" stroke-width="3" fill="#e3fae3"/><path d="M18329.7 1506.43a6 6 0 0 1 6-6h214.53a6 6 0 0 1 6 6v272.68a6 6 0 0 1-6 6.02h-214.53a6 6 0 0 1-6-6z" stroke="#000" stroke-width="3" fill="#e3fae3"/><path d="M18353.45 1528.15a6 6 0 0 1 6-6h214.52a6 6 0 0 1 6 6v272.68a6 6 0 0 1-6 6h-214.52a6 6 0 0 1-6-6zM18316.85 1928.38a6 6 0 0 1 6-6h214.53a6 6 0 0 1 6 6v272.68a6 6 0 0 1-6 6h-214.53a6 6 0 0 1-6-6z" stroke="#000" stroke-width="3" fill="#e3fae3"/><path d="M18333.88 1950.03a6 6 0 0 1 6-6h214.53a6 6 0 0 1 6 6v272.68a6 6 0 0 1-6 6h-214.52a6 6 0 0 1-6-6z" stroke="#000" stroke-width="3" fill="#e3fae3"/><path d="M18353.45 1967.96a6 6 0 0 1 6-6h214.52a6 6 0 0 1 6 6v272.68a6 6 0 0 1-6 6h-214.52a6 6 0 0 1-6-6z" stroke="#000" stroke-width="3" fill="#e3fae3"/><defs><path fill="#fff" d="M519 0H84v-700h432v92H184v203h278v89H184v224h335V0" id="f"/><path fill="#fff" d="M258 12C112 6 48-103 52-261c3-144 69-242 208-247 65-1 114 29 140 68v-260h91V0h-91v-63c-30 50-77 75-142 75zm17-87c95-1 129-81 129-187 0-91-44-159-129-159-95 1-129 81-129 187 0 91 44 159 129 159" id="g"/><path fill="#fff" d="M491-18c2 139-81 235-218 234-105 1-179-53-210-128l80-43c25 57 68 86 130 86 108 1 137-95 127-213-27 43-74 76-144 75C115-13 48-116 52-268c3-139 71-235 205-240 67-1 116 30 143 71v-59h91v478zM275-93c90 0 129-75 129-175 0-87-45-154-129-154-90 0-129 75-129 175 0 87 45 154 129 154" id="h"/><path fill="#fff" d="M278-508c151 0 223 111 214 278H144c-2 89 50 162 133 162 68-1 101-36 122-87l82 31C444-33 376 12 277 12 126 6 48-99 52-261c4-145 83-247 226-247zm124 210c-3-73-51-131-124-131-78 0-123 58-132 131h256" id="i"/><g id="a"><use transform="matrix(0.031111111111111114,0,0,0.031111111111111114,0,0)" xlink:href="#f"/><use transform="matrix(0.031111111111111114,0,0,0.031111111111111114,17.515555555555554,0)" xlink:href="#g"/><use transform="matrix(0.031111111111111114,0,0,0.031111111111111114,35.21777777777778,0)" xlink:href="#h"/><use transform="matrix(0.031111111111111114,0,0,0.031111111111111114,52.92000000000001,0)" xlink:href="#i"/></g><path fill="#fff" d="M585-375C593-144 488-6 275 0H84v-700h191c196 5 303 126 310 325zm-102 50c0-169-59-283-211-283h-88v516h88c134 1 211-95 211-233" id="j"/><path fill="#fff" d="M257 12c-92 0-135-57-135-151v-278H28v-79h94v-95l91-42v137h134v79H213v276c-6 77 79 82 134 51v85c-26 11-56 17-90 17" id="k"/><path fill="#fff" d="M279 12C128 12 48-99 52-261c4-145 84-242 227-247 107 0 173 57 200 142l-80 36c-18-52-55-90-120-91-93 1-133 82-133 188 0 88 49 159 133 158 65-1 102-41 121-92l81 36C449-48 388 12 279 12" id="l"/><path fill="#fff" d="M123-582c-34 1-66-31-65-65-1-34 31-66 65-65 35-1 66 30 65 65 1 35-30 66-65 65zM169 0H78v-496h91V0" id="m"/><path fill="#fff" d="M281 12C129 12 47-98 52-261c4-145 85-247 229-247 152 0 233 110 228 273-4 145-84 247-228 247zm0-87c94-1 134-81 134-187 0-89-49-159-134-159-95 1-135 80-135 187 0 90 49 160 135 159" id="n"/><path fill="#fff" d="M273-424c-64-1-104 47-104 113V0H78v-496h91v55c19-38 73-68 131-67 106-1 168 73 168 180V0h-91v-311c1-66-40-114-104-113" id="o"/><g id="b"><use transform="matrix(0.031111111111111114,0,0,0.031111111111111114,0,0)" xlink:href="#j"/><use transform="matrix(0.031111111111111114,0,0,0.031111111111111114,19.817777777777778,0)" xlink:href="#i"/><use transform="matrix(0.031111111111111114,0,0,0.031111111111111114,36.18222222222222,0)" xlink:href="#k"/><use transform="matrix(0.031111111111111114,0,0,0.031111111111111114,47.81777777777778,0)" xlink:href="#i"/><use transform="matrix(0.031111111111111114,0,0,0.031111111111111114,64.80444444444444,0)" xlink:href="#l"/><use transform="matrix(0.031111111111111114,0,0,0.031111111111111114,80.73333333333333,0)" xlink:href="#k"/><use transform="matrix(0.031111111111111114,0,0,0.031111111111111114,92.68,0)" xlink:href="#m"/><use transform="matrix(0.031111111111111114,0,0,0.031111111111111114,100.36444444444444,0)" xlink:href="#n"/><use transform="matrix(0.031111111111111114,0,0,0.031111111111111114,117.81777777777778,0)" xlink:href="#o"/></g><path fill="#fff" d="M506-700v92H317V0h-99v-608H29v-92h477" id="p"/><path fill="#fff" d="M127 0H21l155-263L32-496h107l92 160 90-160h107L282-260 441 0H335L229-184" id="q"/><g id="c"><use transform="matrix(0.031111111111111114,0,0,0.031111111111111114,0,0)" xlink:href="#p"/><use transform="matrix(0.031111111111111114,0,0,0.031111111111111114,13.844444444444445,0)" xlink:href="#i"/><use transform="matrix(0.031111111111111114,0,0,0.031111111111111114,29.991111111111113,0)" xlink:href="#q"/><use transform="matrix(0.031111111111111114,0,0,0.031111111111111114,44.17777777777778,0)" xlink:href="#k"/></g><path fill="#fff" d="M520-507c2 123-80 194-202 193H184V0H84v-700h234c122-1 204 70 202 193zm-100 0c0-71-39-105-109-105H184v210h127c70 0 109-34 109-105" id="r"/><path fill="#fff" d="M201 12C114 13 50-47 52-135c3-150 164-158 293-184 5-69-35-112-100-112-56 0-94 28-113 85l-76-30c23-75 93-133 189-132 114-2 189 65 189 174v223c-4 42 39 57 72 38V0c-67 32-154-1-154-74-30 57-80 86-151 86zm20-77c94-1 132-81 124-187-78 18-202 22-202 114 0 43 34 74 78 73" id="s"/><path fill="#fff" d="M410-137C415 5 220 53 114-21c-32-23-55-54-67-92l78-38c15 46 50 84 106 85 47 1 93-23 90-68-4-60-48-67-110-85-79-18-146-64-148-152-3-128 177-171 277-108 29 19 49 46 62 81l-70 35c-15-39-52-67-102-71-69-5-117 70-59 111 17 13 46 25 86 34 88 21 150 54 153 152" id="t"/><g id="d"><use transform="matrix(0.031111111111111114,0,0,0.031111111111111114,0,0)" xlink:href="#r"/><use transform="matrix(0.031111111111111114,0,0,0.031111111111111114,16.73777777777778,0)" xlink:href="#s"/><use transform="matrix(0.031111111111111114,0,0,0.031111111111111114,33.102222222222224,0)" xlink:href="#h"/><use transform="matrix(0.031111111111111114,0,0,0.031111111111111114,50.80444444444445,0)" xlink:href="#i"/><use transform="matrix(0.031111111111111114,0,0,0.031111111111111114,67.63555555555556,0)" xlink:href="#t"/></g><path fill="#fff" d="M311 12c-66 0-117-29-142-73V0H78v-700h91v265c23-39 80-74 143-73 145 6 209 116 205 273C513-93 448 6 311 12zm-17-87c95-1 129-81 129-187 0-91-44-159-129-159-95 1-129 81-129 187 0 91 44 159 129 159" id="u"/><path fill="#fff" d="M257 1C159 38 78-18 78-125v-575h91v573c-4 54 46 67 88 44V1" id="v"/><g id="e"><use transform="matrix(0.031111111111111114,0,0,0.031111111111111114,0,0)" xlink:href="#p"/><use transform="matrix(0.031111111111111114,0,0,0.031111111111111114,14.062222222222223,0)" xlink:href="#s"/><use transform="matrix(0.031111111111111114,0,0,0.031111111111111114,30.488888888888894,0)" xlink:href="#u"/><use transform="matrix(0.031111111111111114,0,0,0.031111111111111114,48.19111111111112,0)" xlink:href="#v"/><use transform="matrix(0.031111111111111114,0,0,0.031111111111111114,56.90222222222223,0)" xlink:href="#i"/></g></defs></g></svg>